<svg viewBox="0 0 400 420" xmlns="http://www.w3.org/2000/svg">
  <circle cx="200" cy="220" r="170" fill="#FFF3E6"/>

  <!-- legs -->
  <rect x="160" y="290" width="34" height="90" rx="14" fill="#2C2560"/>
  <rect x="206" y="290" width="34" height="90" rx="14" fill="#2C2560"/>
  <ellipse cx="177" cy="382" rx="24" ry="13" fill="#241813"/>
  <ellipse cx="223" cy="382" rx="24" ry="13" fill="#241813"/>

  <!-- torso: t-shirt -->
  <path d="M 140 190 Q 140 150 200 148 Q 260 150 260 190 L 268 300 Q 200 320 132 300 Z" fill="#1FB8A3"/>
  <path d="M 175 155 Q 200 178 225 155" fill="none" stroke="#159485" stroke-width="5"/>
  <circle cx="200" cy="230" r="20" fill="#FFCB4D" opacity="0.9"/>
  <path d="M200 216 l4.5 12.5 h13 l-10.5 8 4 12.5 -11-8 -11 8 4-12.5-10.5-8h13z" fill="#FFFBF6"/>

  <!-- left arm down -->
  <path d="M 148 205 Q 118 240 132 275" fill="none" stroke="#B87850" stroke-width="24" stroke-linecap="round"/>

  <!-- right arm raised, holding star -->
  <path d="M 252 205 Q 296 190 300 140" fill="none" stroke="#B87850" stroke-width="24" stroke-linecap="round"/>
  <g transform="translate(300,120)">
    <path d="M0 -26 L7 -8 L26 -8 L11 4 L17 24 L0 12 L-17 24 L-11 4 L-26 -8 L-7 -8 Z" fill="#FFCB4D" stroke="#EBB730" stroke-width="2"/>
  </g>

  <!-- neck + head -->
  <rect x="185" y="130" width="30" height="28" rx="10" fill="#A66A45"/>
  <circle cx="200" cy="103" r="58" fill="#B87850"/>

  <!-- hair: short, textured -->
  <path d="M 144 100 Q 138 42 200 40 Q 262 42 256 100 Q 250 58 200 55 Q 150 58 144 100 Z" fill="#241813"/>
  <path d="M 152 66 Q 160 50 172 48 M 178 52 Q 184 42 196 40 M 204 40 Q 216 42 222 52 M 228 48 Q 240 50 248 66" fill="none" stroke="#241813" stroke-width="6" stroke-linecap="round"/>

  <!-- ears -->
  <circle cx="140" cy="108" r="10" fill="#B87850"/>
  <circle cx="260" cy="108" r="10" fill="#B87850"/>

  <!-- face: big happy expression -->
  <circle cx="178" cy="106" r="6" fill="#2C2560"/>
  <circle cx="222" cy="106" r="6" fill="#2C2560"/>
  <path d="M 172 124 Q 200 150 228 124 Q 200 138 172 124 Z" fill="#2C2560"/>
  <circle cx="163" cy="120" r="9" fill="#FF6F59" opacity="0.35"/>
  <circle cx="237" cy="120" r="9" fill="#FF6F59" opacity="0.35"/>
</svg>